<?xml version="1.0" encoding="UTF-8"?>
<!DOCTYPE svg PUBLIC "-//W3C//DTD SVG 1.1//EN" "http://www.w3.org/Graphics/SVG/1.1/DTD/svg11.dtd">
<svg xmlns="http://www.w3.org/2000/svg" version="1.1" width="500px" height="500px" style="shape-rendering:geometricPrecision; text-rendering:geometricPrecision; image-rendering:optimizeQuality; fill-rule:evenodd; clip-rule:evenodd" xmlns:xlink="http://www.w3.org/1999/xlink">
<g><path style="opacity:0.986" fill="#16c165" d="M 57.5,200.5 C 190.126,201.497 322.793,201.83 455.5,201.5C 455.5,233.5 455.5,265.5 455.5,297.5C 322.5,297.5 189.5,297.5 56.5,297.5C 56.1744,265.093 56.5077,232.76 57.5,200.5 Z"/></g>
<g><path style="opacity:1" fill="#befc70" d="M 59.5,204.5 C 190.5,204.5 321.5,204.5 452.5,204.5C 452.5,234.5 452.5,264.5 452.5,294.5C 321.5,294.5 190.5,294.5 59.5,294.5C 59.5,264.5 59.5,234.5 59.5,204.5 Z"/></g>
<g><path style="opacity:1" fill="#010200" d="M 66.5,210.5 C 121.167,210.5 175.833,210.5 230.5,210.5C 230.5,236.5 230.5,262.5 230.5,288.5C 175.833,288.5 121.167,288.5 66.5,288.5C 66.5,262.5 66.5,236.5 66.5,210.5 Z"/></g>
<g><path style="opacity:1" fill="#b2eb69" d="M 75.5,235.5 C 76.8221,235.33 77.9887,235.663 79,236.5C 81.2018,242.772 83.2018,249.105 85,255.5C 87.5,249.167 90,242.833 92.5,236.5C 93.8333,235.167 95.1667,235.167 96.5,236.5C 98.7159,242.656 101.216,248.656 104,254.5C 106,248.5 108,242.5 110,236.5C 111.183,235.269 112.349,235.269 113.5,236.5C 110.632,244.437 107.965,252.437 105.5,260.5C 104.349,261.731 103.183,261.731 102,260.5C 99.7912,254.038 97.2912,247.705 94.5,241.5C 91.4643,247.579 88.9643,253.912 87,260.5C 85.8173,261.731 84.6507,261.731 83.5,260.5C 80.4254,252.277 77.7587,243.944 75.5,235.5 Z"/></g>
<g><path style="opacity:1" fill="#b4ee6a" d="M 128.5,235.5 C 129.978,235.238 131.311,235.571 132.5,236.5C 135.833,244.5 139.167,252.5 142.5,260.5C 141.635,261.583 140.635,261.749 139.5,261C 138.5,259.333 137.5,257.667 136.5,256C 132.179,255.501 127.846,255.334 123.5,255.5C 123.509,257.308 123.009,258.975 122,260.5C 120.817,261.731 119.651,261.731 118.5,260.5C 121.84,252.143 125.173,243.809 128.5,235.5 Z"/></g>
<g><path style="opacity:1" fill="#bffc70" d="M 147.5,235.5 C 154.5,235.5 161.5,235.5 168.5,235.5C 168.5,236.5 168.5,237.5 168.5,238.5C 165.5,238.5 162.5,238.5 159.5,238.5C 159.5,246.167 159.5,253.833 159.5,261.5C 158.5,261.5 157.5,261.5 156.5,261.5C 156.5,253.833 156.5,246.167 156.5,238.5C 153.5,238.5 150.5,238.5 147.5,238.5C 147.5,237.5 147.5,236.5 147.5,235.5 Z"/></g>
<g><path style="opacity:1" fill="#baf66d" d="M 173.5,235.5 C 180.5,235.5 187.5,235.5 194.5,235.5C 194.5,236.5 194.5,237.5 194.5,238.5C 191.5,238.5 188.5,238.5 185.5,238.5C 185.5,246.167 185.5,253.833 185.5,261.5C 184.5,261.5 183.5,261.5 182.5,261.5C 182.5,253.833 182.5,246.167 182.5,238.5C 179.5,238.5 176.5,238.5 173.5,238.5C 173.5,237.5 173.5,236.5 173.5,235.5 Z"/></g>
<g><path style="opacity:1" fill="#ace466" d="M 207.5,234.5 C 214.932,233.38 219.266,236.38 220.5,243.5C 219.167,243.5 217.833,243.5 216.5,243.5C 216.703,241.61 216.037,240.11 214.5,239C 211.833,238.333 209.167,238.333 206.5,239C 205.167,241 205.167,243 206.5,245C 211.28,245.788 215.613,247.622 219.5,250.5C 221.078,253.937 220.745,257.104 218.5,260C 212.392,262.61 206.892,261.776 202,257.5C 201.51,256.207 201.343,254.873 201.5,253.5C 202.552,253.351 203.552,253.517 204.5,254C 206.926,258.288 210.593,259.622 215.5,258C 217.602,256.267 217.935,254.267 216.5,252C 212.021,250.729 207.688,249.062 203.5,247C 200.141,241.279 201.474,237.112 207.5,234.5 Z"/></g>
<g><path style="opacity:1" fill="#060803" d="M 235.5,235.5 C 237.833,235.5 240.167,235.5 242.5,235.5C 242.5,238.5 242.5,241.5 242.5,244.5C 245.167,244.5 247.833,244.5 250.5,244.5C 250.5,241.5 250.5,238.5 250.5,235.5C 253.167,235.5 255.833,235.5 258.5,235.5C 258.5,244.167 258.5,252.833 258.5,261.5C 255.833,261.5 253.167,261.5 250.5,261.5C 250.5,258.167 250.5,254.833 250.5,251.5C 247.833,251.5 245.167,251.5 242.5,251.5C 242.5,254.833 242.5,258.167 242.5,261.5C 240.167,261.5 237.833,261.5 235.5,261.5C 235.5,252.833 235.5,244.167 235.5,235.5 Z"/></g>
<g><path style="opacity:1" fill="#060803" d="M 271.5,235.5 C 274.247,235.187 276.914,235.52 279.5,236.5C 282.74,244.724 286.073,252.89 289.5,261C 286.833,261.667 284.167,261.667 281.5,261C 280.368,258.075 278.201,256.908 275,257.5C 271.673,258.531 268.506,259.865 265.5,261.5C 264.167,261.167 262.833,260.833 261.5,260.5C 265.126,252.254 268.459,243.92 271.5,235.5 Z"/></g>
<g><path style="opacity:1" fill="#030401" d="M 292.5,235.5 C 297.179,235.334 301.845,235.501 306.5,236C 313.614,239.069 315.447,244.236 312,251.5C 311.097,252.701 309.931,253.535 308.5,254C 305.518,254.498 302.518,254.665 299.5,254.5C 299.5,256.833 299.5,259.167 299.5,261.5C 297.167,261.5 294.833,261.5 292.5,261.5C 292.5,252.833 292.5,244.167 292.5,235.5 Z"/></g>
<g><path style="opacity:1" fill="#090c05" d="M 317.5,235.5 C 322.511,235.334 327.511,235.501 332.5,236C 339.812,239.137 341.479,244.303 337.5,251.5C 333.96,254.115 329.96,255.115 325.5,254.5C 325.5,256.833 325.5,259.167 325.5,261.5C 322.833,261.5 320.167,261.5 317.5,261.5C 317.5,252.833 317.5,244.167 317.5,235.5 Z"/></g>
<g><path style="opacity:1" fill="#010200" d="M 359.5,245.5 C 359.5,247.167 359.5,248.833 359.5,250.5C 356.287,250.19 353.287,250.523 350.5,251.5C 350.5,252.833 350.5,254.167 350.5,255.5C 354.167,255.5 357.833,255.5 361.5,255.5C 361.5,257.5 361.5,259.5 361.5,261.5C 355.5,261.5 349.5,261.5 343.5,261.5C 343.5,252.833 343.5,244.167 343.5,235.5C 349.5,235.5 355.5,235.5 361.5,235.5C 361.5,237.5 361.5,239.5 361.5,241.5C 357.833,241.5 354.167,241.5 350.5,241.5C 350.5,242.833 350.5,244.167 350.5,245.5C 353.5,245.5 356.5,245.5 359.5,245.5 Z"/></g>
<g><path style="opacity:1" fill="#010201" d="M 380.5,246.5 C 380.783,247.289 381.283,247.956 382,248.5C 382.499,244.179 382.666,239.846 382.5,235.5C 384.833,235.5 387.167,235.5 389.5,235.5C 389.5,244.167 389.5,252.833 389.5,261.5C 387.473,261.662 385.473,261.495 383.5,261C 379.95,257.117 376.783,252.951 374,248.5C 373.501,252.821 373.334,257.154 373.5,261.5C 371.167,261.5 368.833,261.5 366.5,261.5C 366.5,252.833 366.5,244.167 366.5,235.5C 368.527,235.338 370.527,235.505 372.5,236C 375.383,239.376 378.049,242.876 380.5,246.5 Z"/></g>
<g><path style="opacity:1" fill="#7aa148" d="M 382.5,235.5 C 382.666,239.846 382.499,244.179 382,248.5C 381.283,247.956 380.783,247.289 380.5,246.5C 381.167,242.833 381.833,239.167 382.5,235.5 Z"/></g>
<g><path style="opacity:1" fill="#010200" d="M 411.5,245.5 C 411.5,247.167 411.5,248.833 411.5,250.5C 408.287,250.19 405.287,250.523 402.5,251.5C 402.5,252.833 402.5,254.167 402.5,255.5C 406.167,255.5 409.833,255.5 413.5,255.5C 413.5,257.5 413.5,259.5 413.5,261.5C 407.5,261.5 401.5,261.5 395.5,261.5C 395.5,252.833 395.5,244.167 395.5,235.5C 401.5,235.5 407.5,235.5 413.5,235.5C 413.5,237.5 413.5,239.5 413.5,241.5C 409.833,241.5 406.167,241.5 402.5,241.5C 402.5,242.833 402.5,244.167 402.5,245.5C 405.5,245.5 408.5,245.5 411.5,245.5 Z"/></g>
<g><path style="opacity:1" fill="#070804" d="M 418.5,235.5 C 423.844,235.334 429.177,235.501 434.5,236C 444.368,241.378 446.035,248.711 439.5,258C 432.877,261.144 425.877,262.311 418.5,261.5C 418.5,252.833 418.5,244.167 418.5,235.5 Z"/></g>
<g><path style="opacity:1" fill="#0d1007" d="M 129.5,241.5 C 130.376,241.369 131.043,241.702 131.5,242.5C 132.559,245.618 133.892,248.618 135.5,251.5C 132.167,252.833 128.833,252.833 125.5,251.5C 127.036,248.222 128.369,244.889 129.5,241.5 Z"/></g>
<g><path style="opacity:1" fill="#b7f26c" d="M 299.5,241.5 C 302.885,240.79 305.219,241.956 306.5,245C 305.219,248.044 302.885,249.21 299.5,248.5C 299.5,246.167 299.5,243.833 299.5,241.5 Z"/></g>
<g><path style="opacity:1" fill="#b2ec69" d="M 325.5,241.5 C 328.885,240.79 331.219,241.956 332.5,245C 331.219,248.044 328.885,249.21 325.5,248.5C 325.5,246.167 325.5,243.833 325.5,241.5 Z"/></g>
<g><path style="opacity:1" fill="#baf66e" d="M 425.5,242.5 C 431.101,241.064 434.434,243.064 435.5,248.5C 434.434,253.936 431.101,255.936 425.5,254.5C 425.5,250.5 425.5,246.5 425.5,242.5 Z"/></g>
<g><path style="opacity:1" fill="#a9df63" d="M 274.5,245.5 C 276.306,247.089 277.639,249.089 278.5,251.5C 276.5,252.833 274.5,252.833 272.5,251.5C 273.372,249.55 274.039,247.55 274.5,245.5 Z"/></g>
<g><path style="opacity:1" fill="#2d3b1a" d="M 359.5,245.5 C 360.461,247.265 360.795,249.265 360.5,251.5C 357.167,251.5 353.833,251.5 350.5,251.5C 353.287,250.523 356.287,250.19 359.5,250.5C 359.5,248.833 359.5,247.167 359.5,245.5 Z"/></g>
<g><path style="opacity:1" fill="#2d3b1a" d="M 411.5,245.5 C 412.461,247.265 412.795,249.265 412.5,251.5C 409.167,251.5 405.833,251.5 402.5,251.5C 405.287,250.523 408.287,250.19 411.5,250.5C 411.5,248.833 411.5,247.167 411.5,245.5 Z"/></g>
</svg>
