<?xml version="1.0" encoding="UTF-8"?>
<!DOCTYPE svg PUBLIC "-//W3C//DTD SVG 1.1//EN" "http://www.w3.org/Graphics/SVG/1.1/DTD/svg11.dtd">
<svg xmlns="http://www.w3.org/2000/svg" version="1.1" width="456px" height="155px" style="shape-rendering:geometricPrecision; text-rendering:geometricPrecision; image-rendering:optimizeQuality; fill-rule:evenodd; clip-rule:evenodd" xmlns:xlink="http://www.w3.org/1999/xlink">
<g><path style="opacity:1" fill="#05bf63" d="M 44.5,26.5 C 171.666,27.4996 298.999,27.8329 426.5,27.5C 426.5,58.8333 426.5,90.1667 426.5,121.5C 294.167,121.5 161.833,121.5 29.5,121.5C 29.5,89.8333 29.5,58.1667 29.5,26.5C 34.2509,26.359 39.2509,26.359 44.5,26.5 Z"/></g>
<g><path style="opacity:0.949" fill="#17ad5c" d="M 29.5,26.5 C 29.5,58.1667 29.5,89.8333 29.5,121.5C 161.833,121.5 294.167,121.5 426.5,121.5C 426.5,90.1667 426.5,58.8333 426.5,27.5C 298.999,27.8329 171.666,27.4996 44.5,26.5C 172.167,26.5 299.833,26.5 427.5,26.5C 427.5,58.5 427.5,90.5 427.5,122.5C 294.5,122.5 161.5,122.5 28.5,122.5C 28.1684,90.329 28.5018,58.329 29.5,26.5 Z"/></g>
<g><path style="opacity:1" fill="#befc70" d="M 31.5,29.5 C 162.5,29.5 293.5,29.5 424.5,29.5C 424.5,59.5 424.5,89.5 424.5,119.5C 293.5,119.5 162.5,119.5 31.5,119.5C 31.5,89.5 31.5,59.5 31.5,29.5 Z"/></g>
<g><path style="opacity:1" fill="#2d3b1a" d="M 383.5,70.5 C 384.461,72.2646 384.795,74.2646 384.5,76.5C 381.167,76.5 377.833,76.5 374.5,76.5C 377.287,75.5233 380.287,75.19 383.5,75.5C 383.5,73.8333 383.5,72.1667 383.5,70.5 Z"/></g>
<g><path style="opacity:1" fill="#2d3b1a" d="M 331.5,70.5 C 332.461,72.2646 332.795,74.2646 332.5,76.5C 329.167,76.5 325.833,76.5 322.5,76.5C 325.287,75.5233 328.287,75.19 331.5,75.5C 331.5,73.8333 331.5,72.1667 331.5,70.5 Z"/></g>
<g><path style="opacity:1" fill="#070804" d="M 390.5,60.5 C 395.844,60.334 401.177,60.5006 406.5,61C 416.368,66.3777 418.035,73.7111 411.5,83C 404.877,86.144 397.877,87.3107 390.5,86.5C 390.5,77.8333 390.5,69.1667 390.5,60.5 Z"/></g>
<g><path style="opacity:1" fill="#baf66e" d="M 397.5,67.5 C 403.101,66.0644 406.434,68.0644 407.5,73.5C 406.434,78.9356 403.101,80.9356 397.5,79.5C 397.5,75.5 397.5,71.5 397.5,67.5 Z"/></g>
<g><path style="opacity:1" fill="#010200" d="M 383.5,70.5 C 383.5,72.1667 383.5,73.8333 383.5,75.5C 380.287,75.19 377.287,75.5233 374.5,76.5C 374.5,77.8333 374.5,79.1667 374.5,80.5C 378.167,80.5 381.833,80.5 385.5,80.5C 385.5,82.5 385.5,84.5 385.5,86.5C 379.5,86.5 373.5,86.5 367.5,86.5C 367.5,77.8333 367.5,69.1667 367.5,60.5C 373.5,60.5 379.5,60.5 385.5,60.5C 385.5,62.5 385.5,64.5 385.5,66.5C 381.833,66.5 378.167,66.5 374.5,66.5C 374.5,67.8333 374.5,69.1667 374.5,70.5C 377.5,70.5 380.5,70.5 383.5,70.5 Z"/></g>
<g><path style="opacity:1" fill="#010201" d="M 352.5,71.5 C 352.783,72.2891 353.283,72.9558 354,73.5C 354.499,69.1794 354.666,64.8461 354.5,60.5C 356.833,60.5 359.167,60.5 361.5,60.5C 361.5,69.1667 361.5,77.8333 361.5,86.5C 359.473,86.6621 357.473,86.4955 355.5,86C 351.95,82.1174 348.783,77.9507 346,73.5C 345.501,77.8206 345.334,82.1539 345.5,86.5C 343.167,86.5 340.833,86.5 338.5,86.5C 338.5,77.8333 338.5,69.1667 338.5,60.5C 340.527,60.3379 342.527,60.5045 344.5,61C 347.383,64.3765 350.049,67.8765 352.5,71.5 Z"/></g>
<g><path style="opacity:1" fill="#7aa148" d="M 354.5,60.5 C 354.666,64.8461 354.499,69.1794 354,73.5C 353.283,72.9558 352.783,72.2891 352.5,71.5C 353.167,67.8333 353.833,64.1667 354.5,60.5 Z"/></g>
<g><path style="opacity:1" fill="#010200" d="M 331.5,70.5 C 331.5,72.1667 331.5,73.8333 331.5,75.5C 328.287,75.19 325.287,75.5233 322.5,76.5C 322.5,77.8333 322.5,79.1667 322.5,80.5C 326.167,80.5 329.833,80.5 333.5,80.5C 333.5,82.5 333.5,84.5 333.5,86.5C 327.5,86.5 321.5,86.5 315.5,86.5C 315.5,77.8333 315.5,69.1667 315.5,60.5C 321.5,60.5 327.5,60.5 333.5,60.5C 333.5,62.5 333.5,64.5 333.5,66.5C 329.833,66.5 326.167,66.5 322.5,66.5C 322.5,67.8333 322.5,69.1667 322.5,70.5C 325.5,70.5 328.5,70.5 331.5,70.5 Z"/></g>
<g><path style="opacity:1" fill="#090c05" d="M 289.5,60.5 C 294.511,60.3341 299.511,60.5007 304.5,61C 311.812,64.1366 313.479,69.3032 309.5,76.5C 305.96,79.1153 301.96,80.1153 297.5,79.5C 297.5,81.8333 297.5,84.1667 297.5,86.5C 294.833,86.5 292.167,86.5 289.5,86.5C 289.5,77.8333 289.5,69.1667 289.5,60.5 Z"/></g>
<g><path style="opacity:1" fill="#b2ec69" d="M 297.5,66.5 C 300.885,65.7896 303.219,66.9563 304.5,70C 303.219,73.0437 300.885,74.2104 297.5,73.5C 297.5,71.1667 297.5,68.8333 297.5,66.5 Z"/></g>
<g><path style="opacity:1" fill="#030401" d="M 264.5,60.5 C 269.179,60.3342 273.845,60.5008 278.5,61C 285.614,64.069 287.447,69.2357 284,76.5C 283.097,77.7014 281.931,78.5348 280.5,79C 277.518,79.498 274.518,79.6646 271.5,79.5C 271.5,81.8333 271.5,84.1667 271.5,86.5C 269.167,86.5 266.833,86.5 264.5,86.5C 264.5,77.8333 264.5,69.1667 264.5,60.5 Z"/></g>
<g><path style="opacity:1" fill="#b7f26c" d="M 271.5,66.5 C 274.885,65.7896 277.219,66.9563 278.5,70C 277.219,73.0437 274.885,74.2104 271.5,73.5C 271.5,71.1667 271.5,68.8333 271.5,66.5 Z"/></g>
<g><path style="opacity:1" fill="#060803" d="M 243.5,60.5 C 246.247,60.1866 248.914,60.52 251.5,61.5C 254.74,69.7238 258.073,77.8905 261.5,86C 258.833,86.6667 256.167,86.6667 253.5,86C 252.368,83.0746 250.201,81.9079 247,82.5C 243.673,83.5314 240.506,84.8647 237.5,86.5C 236.167,86.1667 234.833,85.8333 233.5,85.5C 237.126,77.2537 240.459,68.9204 243.5,60.5 Z"/></g>
<g><path style="opacity:1" fill="#a9df63" d="M 246.5,70.5 C 248.306,72.0894 249.639,74.0894 250.5,76.5C 248.5,77.8333 246.5,77.8333 244.5,76.5C 245.372,74.5504 246.039,72.5504 246.5,70.5 Z"/></g>
<g><path style="opacity:1" fill="#060803" d="M 207.5,60.5 C 209.833,60.5 212.167,60.5 214.5,60.5C 214.5,63.5 214.5,66.5 214.5,69.5C 217.167,69.5 219.833,69.5 222.5,69.5C 222.5,66.5 222.5,63.5 222.5,60.5C 225.167,60.5 227.833,60.5 230.5,60.5C 230.5,69.1667 230.5,77.8333 230.5,86.5C 227.833,86.5 225.167,86.5 222.5,86.5C 222.5,83.1667 222.5,79.8333 222.5,76.5C 219.833,76.5 217.167,76.5 214.5,76.5C 214.5,79.8333 214.5,83.1667 214.5,86.5C 212.167,86.5 209.833,86.5 207.5,86.5C 207.5,77.8333 207.5,69.1667 207.5,60.5 Z"/></g>
<g><path style="opacity:1" fill="#010200" d="M 38.5,35.5 C 93.1667,35.5 147.833,35.5 202.5,35.5C 202.5,61.5 202.5,87.5 202.5,113.5C 147.833,113.5 93.1667,113.5 38.5,113.5C 38.5,87.5 38.5,61.5 38.5,35.5 Z"/></g>
<g><path style="opacity:1" fill="#ace466" d="M 179.5,59.5 C 186.932,58.3805 191.266,61.3805 192.5,68.5C 191.167,68.5 189.833,68.5 188.5,68.5C 188.703,66.6096 188.037,65.1096 186.5,64C 183.833,63.3333 181.167,63.3333 178.5,64C 177.167,66 177.167,68 178.5,70C 183.28,70.7885 187.613,72.6218 191.5,75.5C 193.078,78.9374 192.745,82.1041 190.5,85C 184.392,87.6096 178.892,86.7763 174,82.5C 173.51,81.2068 173.343,79.8734 173.5,78.5C 174.552,78.3505 175.552,78.5172 176.5,79C 178.926,83.2885 182.593,84.6218 187.5,83C 189.602,81.2672 189.935,79.2672 188.5,77C 184.021,75.729 179.688,74.0623 175.5,72C 172.141,66.2788 173.474,62.1122 179.5,59.5 Z"/></g>
<g><path style="opacity:1" fill="#baf66d" d="M 145.5,60.5 C 152.5,60.5 159.5,60.5 166.5,60.5C 166.5,61.5 166.5,62.5 166.5,63.5C 163.5,63.5 160.5,63.5 157.5,63.5C 157.5,71.1667 157.5,78.8333 157.5,86.5C 156.5,86.5 155.5,86.5 154.5,86.5C 154.5,78.8333 154.5,71.1667 154.5,63.5C 151.5,63.5 148.5,63.5 145.5,63.5C 145.5,62.5 145.5,61.5 145.5,60.5 Z"/></g>
<g><path style="opacity:1" fill="#bffc70" d="M 119.5,60.5 C 126.5,60.5 133.5,60.5 140.5,60.5C 140.5,61.5 140.5,62.5 140.5,63.5C 137.5,63.5 134.5,63.5 131.5,63.5C 131.5,71.1667 131.5,78.8333 131.5,86.5C 130.5,86.5 129.5,86.5 128.5,86.5C 128.5,78.8333 128.5,71.1667 128.5,63.5C 125.5,63.5 122.5,63.5 119.5,63.5C 119.5,62.5 119.5,61.5 119.5,60.5 Z"/></g>
<g><path style="opacity:1" fill="#b4ee6a" d="M 100.5,60.5 C 101.978,60.238 103.311,60.5713 104.5,61.5C 107.833,69.5 111.167,77.5 114.5,85.5C 113.635,86.5827 112.635,86.7494 111.5,86C 110.5,84.3333 109.5,82.6667 108.5,81C 104.179,80.501 99.8461,80.3343 95.5,80.5C 95.5086,82.3084 95.0086,83.9751 94,85.5C 92.8173,86.731 91.6507,86.731 90.5,85.5C 93.8398,77.1428 97.1731,68.8095 100.5,60.5 Z"/></g>
<g><path style="opacity:1" fill="#0d1007" d="M 101.5,66.5 C 102.376,66.3691 103.043,66.7025 103.5,67.5C 104.559,70.6179 105.892,73.6179 107.5,76.5C 104.167,77.8333 100.833,77.8333 97.5,76.5C 99.0355,73.2225 100.369,69.8891 101.5,66.5 Z"/></g>
<g><path style="opacity:1" fill="#b2eb69" d="M 47.5,60.5 C 48.8221,60.33 49.9887,60.6634 51,61.5C 53.2018,67.7721 55.2018,74.1054 57,80.5C 59.5,74.1667 62,67.8333 64.5,61.5C 65.8333,60.1667 67.1667,60.1667 68.5,61.5C 70.7159,67.6556 73.2159,73.6556 76,79.5C 78,73.5 80,67.5 82,61.5C 83.1827,60.269 84.3493,60.269 85.5,61.5C 82.6321,69.4372 79.9654,77.4372 77.5,85.5C 76.3493,86.731 75.1827,86.731 74,85.5C 71.7912,79.0382 69.2912,72.7048 66.5,66.5C 63.4643,72.5792 60.9643,78.9125 59,85.5C 57.8173,86.731 56.6507,86.731 55.5,85.5C 52.4254,77.2769 49.7587,68.9435 47.5,60.5 Z"/></g>
</svg>
